<svg width="40" height="31" viewBox="0 0 40 31" fill="none" xmlns="http://www.w3.org/2000/svg">
<path fill-rule="evenodd" clip-rule="evenodd" d="M1.82822 11.3949C0.522626 10.8985 -0.126582 9.44027 0.378169 8.13789C0.882921 6.83551 2.3505 6.18212 3.65609 6.67851L12.7741 10.1452C12.8765 10.2015 12.9842 10.2514 13.0968 10.2942L17.8216 12.0886C19.1252 12.5837 20.5909 11.9311 21.0953 10.6311C21.5997 9.33112 20.9518 7.87592 19.6482 7.38084L14.9233 5.58644C14.8452 5.55675 14.7664 5.53119 14.6873 5.50964C13.5359 4.93896 12.9908 3.57768 13.4653 2.35394C13.97 1.0523 15.437 0.399171 16.7419 0.895131L30.4074 6.08872C30.5858 6.1476 30.7637 6.21068 30.9411 6.27801C37.4562 8.75159 40.6951 16.0199 38.1754 22.5123C35.6556 29.0046 28.3314 32.2625 21.8163 29.7889C21.5637 29.693 21.316 29.5899 21.0734 29.4799L7.65389 24.3799C6.34894 23.884 5.70018 22.4268 6.20483 21.1252C6.68328 19.8912 8.02667 19.24 9.27692 19.5983C9.33846 19.6276 9.40169 19.6546 9.46654 19.6792L14.1914 21.4736C15.495 21.9687 16.9607 21.3162 17.4651 20.0162C17.9695 18.7161 17.3216 17.2609 16.018 16.7659L11.2931 14.9715C11.191 14.9327 11.0878 14.9009 10.9842 14.876L1.82822 11.3949Z" fill="#EDEEF0"/>
</svg>
